<svg
  xmlns="http://www.w3.org/2000/svg"
  width="1rem"
  height="1rem"
  viewBox="0 0 24 24">
  <g fill="none" fill-rule="evenodd">
    <path d="m12.593 23.258l-.011.002l-.071.035l-.02.004l-.014-.004l-.071-.035q-.016-.005-.024.005l-.004.01l-.017.428l.005.02l.01.013l.104.074l.015.004l.012-.004l.104-.074l.012-.016l.004-.017l-.017-.427q-.004-.016-.017-.018m.265-.113l-.013.002l-.185.093l-.01.01l-.003.011l.018.43l.005.012l.008.007l.201.093q.019.005.029-.008l.004-.014l-.034-.614q-.005-.018-.02-.022m-.715.002a.02.02 0 0 0-.027.006l-.006.014l-.034.614q.001.018.017.024l.015-.002l.201-.093l.01-.008l.004-.011l.017-.43l-.003-.012l-.01-.01z"/>
    <path fill="currentColor" d="M8.993 5.163c.169 1.423-.062 2.907-.576 4.239c-.569 1.474-1.325 3.07-1.419 4.657c-.079 1.337.224 2.919 1.032 4.002C8.915 19.247 10.368 20 11.967 20h1.512a5 5 0 0 0 4.983-4.585l.361-4.332A1 1 0 0 0 17.826 10H12.5a1.503 1.503 0 0 1-1.501-1.492c-.008-.97.053-2.167-.393-3.06c-.4-.8-.774-.948-1.106-.948c-.3 0-.54.393-.507.663M9.5 2.5c1.356 0 2.294.852 2.895 2.053c.522 1.045.571 2.3.597 3.447h4.834a3 3 0 0 1 2.99 3.25l-.361 4.331A7 7 0 0 1 13.479 22h-1.512A6.94 6.94 0 0 1 6.9 19.822A5.5 5.5 0 0 1 5.5 20c-1.108 0-2.028-.62-2.624-1.608C2.296 17.432 2 16.107 2 14.5s.297-2.931.876-3.891C3.472 9.62 4.392 9 5.5 9c.281 0 .579.05.877.134c.458-1.2.784-2.437.63-3.735C6.835 3.954 8.016 2.5 9.5 2.5m-3.804 8.524c-.485-.1-.865.216-1.107.618C4.263 12.182 4 13.106 4 14.5s.263 2.319.588 2.859c.31.512.64.641.912.641q.096 0 .19-.005c-.536-1.208-.766-2.74-.688-4.054c.047-.805.361-1.918.694-2.917"/>
  </g>
</svg>
